PathFileType	4	(X/Y/Z)	C:\Users\Biomechanik\SynologyDrive\AlexP\Athlete_03\Athlete_3_25_03_31\Walking_02\marker_experimental.trc
DataRate	CameraRate	NumFrames	NumMarkers	Units	OrigDataRate	OrigDataStartFrame	OrigNumFrames
200.000000	200.000000	4	53	mm	200.000000	0	493
Frame#	Time	GLAB			RFHD			LFHD			C7			T6			SPINMOL			SPINM2			SPINM3			T12			BELTOL			BELT2			BELT3			SACROL			SACR2			SACR3			LTHOL			LTH2			LTH3			LSHAOL			LSHA2			LSHA3			LHEE			LTOE			LM5			RTHOL			RTH2			RSHAOL			RSHA2			RSHA3			RHEE			RTOE			RM5			STRN			XIPH			LACR			LUAOL			LUA2			LUA3			LLAOL			LLA2			LLA3			LWRR			LWRU			RACR			RUAOL			RUA2			RUA3			RLAOL			RLA2			RLA3			RWRR			RWRU			RTH3			
		X1	Y1	Z1	X2	Y2	Z2	X3	Y3	Z3	X4	Y4	Z4	X5	Y5	Z5	X6	Y6	Z6	X7	Y7	Z7	X8	Y8	Z8	X9	Y9	Z9	X10	Y10	Z10	X11	Y11	Z11	X12	Y12	Z12	X13	Y13	Z13	X14	Y14	Z14	X15	Y15	Z15	X16	Y16	Z16	X17	Y17	Z17	X18	Y18	Z18	X19	Y19	Z19	X20	Y20	Z20	X21	Y21	Z21	X22	Y22	Z22	X23	Y23	Z23	X24	Y24	Z24	X25	Y25	Z25	X26	Y26	Z26	X27	Y27	Z27	X28	Y28	Z28	X29	Y29	Z29	X30	Y30	Z30	X31	Y31	Z31	X32	Y32	Z32	X33	Y33	Z33	X34	Y34	Z34	X35	Y35	Z35	X36	Y36	Z36	X37	Y37	Z37	X38	Y38	Z38	X39	Y39	Z39	X40	Y40	Z40	X41	Y41	Z41	X42	Y42	Z42	X43	Y43	Z43	X44	Y44	Z44	X45	Y45	Z45	X46	Y46	Z46	X47	Y47	Z47	X48	Y48	Z48	X49	Y49	Z49	X50	Y50	Z50	X51	Y51	Z51	X52	Y52	Z52	X53	Y53	Z53	

1	0	-618.5989990234376	1596.081176757812	219.6147003173827	-669.4689331054689	1625.490966796875	282.5023193359374	-661.0272827148439	1618.900146484375	145.3145294189452	-851.7935791015626	1444.0966796875	208.168746948242	-916.6538696289064	1277.76904296875	206.4600830078123	-925.6888427734376	1237.493408203125	186.1116638183592	-932.6654052734376	1231.373779296875	235.6893920898436	-923.6914672851564	1173.769653320312	203.6266479492186	-901.2115478515626	1107.43603515625	208.9924011230467	-941.1547851562501	1073.54150390625	197.360626220703	-940.0908813476564	1072.050048828125	247.8050689697264	-947.5024414062501	1011.699096679687	219.8216247558592	-933.1795043945314	960.8085327148436	204.4618682861326	-927.0532226562501	958.7978515625	255.4003448486326	-945.0424194335938	900.3902587890624	229.7077484130858	-857.7767944335938	678.4227294921875	49.48025894165023	-912.7481079101562	628.915283203125	78.26274871826155	-866.0983276367188	619.7908935546875	64.91935729980453	-911.586669921875	325.6515502929687	78.82487487792952	-968.4403686523438	271.2707214355468	90.47930908203107	-918.8106689453125	264.9888305664062	89.74871826171858	-1018.609130859375	86.01523590087885	189.2423858642576	-803.1957397460938	42.67073822021479	180.764434814453	-854.0220336914062	29.7383136749267	81.88829803466781	-747.3583984375001	682.83984375	424.0306701660155	-671.8526000976564	657.138671875	430.9159851074218	-698.8298339843751	367.2056579589843	411.7936096191405	-670.2017822265626	293.9862976074218	409.115509033203	-715.0967407226564	310.2286987304687	394.7582702636718	-757.7357177734375	101.3709259033203	281.1664733886718	-551.4451293945314	71.06084442138669	313.5659179687499	-611.8695068359376	53.93313980102536	405.2787780761718	-685.7264404296876	1336.029174804688	217.5511932373046	-674.0271606445314	1192.801391601562	217.7408752441405	-768.3288574218751	1401.533935546875	38.66410446166978	-757.3281250000001	1250.003540039062	-63.85583877563491	-761.5363769531251	1187.274047851562	-83.58986663818374	-719.2733154296876	1197.119018554688	-59.61121749877943	-673.0537719726564	997.5070190429688	-107.0034103393556	-686.922119140625	922.019287109375	-89.76737976074232	-644.1165771484376	945.5418090820312	-100.6165847778321	-582.9600830078125	860.613525390625	-90.66505432128918	-551.138916015625	886.29736328125	-23.91452598571787	-777.970642089844	1396.635498046875	382.2391662597655	-821.8985595703127	1254.8271484375	482.1526489257811	-807.4389648437502	1191.653930664062	495.5112915039061	-857.767028808594	1202.438232421875	501.3326416015623	-853.8511962890627	984.440185546875	549.0162963867186	-809.4168090820315	931.0426025390625	586.4015502929686	-848.6788330078126	922.3778686523438	557.4017333984374	-820.4067382812501	839.0499877929688	581.2416381835936	-772.7644653320314	817.3316040039062	518.4166259765624	-718.0226440429689	632.353515625	414.0071411132811	
2	0.005	-612.0571899414064	1595.116943359375	220.4353637695311	-662.9127807617189	1624.44970703125	283.3632202148436	-654.4063110351564	1618.129028320312	146.1697387695311	-845.3897705078126	1443.360595703125	208.6093749999999	-910.3756713867189	1277.071411132812	206.9232788085936	-919.4624633789064	1236.783813476562	186.5866699218748	-926.3657226562501	1230.678344726562	236.1772003173826	-917.4602050781251	1173.061767578125	204.1092834472655	-895.0116577148439	1106.7158203125	209.5191192626951	-934.9583740234376	1072.85498046875	197.9212341308592	-933.7786865234376	1071.292602539062	248.3602142333983	-941.2937622070314	1010.991333007812	220.3104858398436	-926.9392700195314	960.3037109375	204.9672546386717	-920.7146606445314	958.1419677734375	255.8856811523436	-938.9937133789062	899.8760986328124	230.0929718017576	-853.5653686523438	678.3366088867188	49.39024734497055	-908.7713623046875	629.21875	78.3185958862303	-862.2100830078125	619.7548828125	64.92192077636703	-909.771728515625	325.8802795410156	78.90460968017561	-966.9784545898438	271.8719787597656	90.54901885986311	-917.3896484375	265.2621459960937	89.81338500976545	-1018.339904785156	86.73223876953119	189.3478240966795	-803.1803588867188	42.5958747863769	180.7611541748045	-853.935302734375	29.79895782470698	81.94811248779281	-740.4091796875001	681.8027954101562	423.4547424316405	-665.1483764648439	656.1929321289062	430.1746215820311	-688.0316162109376	364.7485961914062	411.531768798828	-657.2294921875001	292.3921508789062	409.6466979980468	-702.4672851562501	307.1974792480468	394.8365478515624	-738.236572265625	96.51196289062496	282.6748046874999	-531.3687744140626	72.09117126464841	315.4287109374999	-591.3837890625001	53.68055725097653	407.1971740722655	-679.3849487304689	1335.143310546875	217.8885955810546	-667.8346557617189	1191.906005859375	217.8803100585936	-762.0576171875001	1400.9033203125	39.10817718505845	-750.6137695312501	1249.639404296875	-63.53996276855482	-754.6129760742189	1186.970458984375	-83.40998077392592	-712.3311157226564	1196.970703125	-59.35321426391614	-664.5062866210939	997.831787109375	-106.6588363647462	-677.4531860351562	922.2040405273438	-89.40769958496107	-634.8804931640626	946.2434692382812	-100.1241836547853	-572.7520141601562	862.0360717773438	-89.79545593261729	-541.4501953125	888.3505859375	-23.0388011932374	-771.7017211914065	1395.677734375	382.657745361328	-816.1902465820315	1253.902709960938	482.3399353027342	-801.9660644531252	1190.700317382812	495.7798767089842	-852.2785644531252	1201.600830078125	501.3448486328123	-849.3321533203127	983.7307739257812	549.0835571289061	-805.481384277344	930.20458984375	586.9086303710936	-844.5227661132814	921.661865234375	557.5957031249999	-816.8373413085939	838.2047729492188	581.7216796874999	-768.6741943359376	816.234130859375	519.4041748046874	-712.1412963867189	631.272705078125	413.160430908203	
3	0.01	-605.3663940429689	1594.093994140625	221.2952880859374	-656.2111206054689	1623.351684570312	284.2624511718749	-647.6346435546876	1617.302612304688	147.0647125244139	-838.8461914062501	1442.574584960938	209.0832214355467	-903.9595947265626	1276.321899414062	207.4256591796873	-913.0999145507814	1236.022094726562	187.0996093749998	-919.9238891601564	1229.92919921875	236.7035064697264	-911.0902709960939	1172.30126953125	204.6278686523436	-888.6707153320314	1105.941772460938	210.078643798828	-928.6179199218751	1072.099243164062	198.4970397949217	-927.3219604492189	1070.46142578125	248.9296874999998	-934.9325561523439	1010.211669921875	220.808395385742	-920.5357666015626	959.7625732421875	205.4859619140623	-914.2105712890626	957.43408203125	256.3825683593748	-932.8078002929688	899.3262329101561	230.4785156249998	-849.2817993164062	678.2421875	49.31490707397445	-904.72509765625	629.5446166992188	78.41560363769514	-858.266357421875	619.728271484375	64.94215393066391	-907.9568481445312	326.1303100585937	78.99320220947249	-965.5162963867188	272.5017089843749	90.64448547363264	-915.9716796875	265.5579833984374	89.8837585449217	-1018.056213378906	87.47772979736322	189.4613037109373	-803.1588134765625	42.52267456054683	180.7566833496092	-853.8479614257812	29.86348724365229	82.00415802001937	-733.4704589843751	680.6558837890625	422.8351135253905	-658.4358520507814	655.09326171875	429.4724121093749	-677.0728149414064	362.2649841308593	411.2960510253905	-644.0916748046876	290.8466491699218	410.2008361816405	-689.6405639648439	304.1893615722656	394.946075439453	-718.3636474609375	91.83633422851558	284.2136230468749	-511.0582580566407	73.41001129150388	317.3337402343749	-570.6353759765626	53.6922454833984	409.1493225097655	-672.9090576171876	1334.201538085938	218.2548217773436	-661.5040893554689	1190.959228515625	218.0452575683593	-755.6484375000001	1400.223876953125	39.58401107788072	-743.7703247070314	1249.225830078125	-63.19128417968764	-747.5668334960939	1186.619995117188	-83.19481658935561	-705.2575073242189	1196.777465820312	-59.06569671630872	-655.8166503906251	998.1287841796875	-106.2879180908204	-667.8407592773438	922.3694458007812	-89.01433563232435	-625.5003662109376	946.9237060546875	-99.60198211669933	-562.4168701171875	863.4547729492188	-88.89742279052744	-531.631103515625	890.3985595703125	-22.13726997375498	-765.2856445312502	1394.66943359375	383.107452392578	-810.3257446289065	1252.927978515625	482.554962158203	-796.3385009765627	1189.6943359375	496.0682983398436	-846.632507324219	1200.715209960938	501.383819580078	-844.6589355468752	982.9660034179688	549.1606445312499	-801.3861083984377	929.3146362304688	587.4184570312499	-840.2038574218751	920.8914794921875	557.7912597656249	-813.0878906250001	837.3143310546875	582.1997070312499	-764.4262084960939	815.0880737304688	520.3730468749999	-705.8574829101564	630.1280517578125	412.3808593749999	
4	0.015	-598.5650634765626	1593.016235351562	222.191436767578	-649.4014892578126	1622.201293945312	285.1967773437499	-640.7504272460939	1616.423706054688	147.9963531494139	-832.1996459960939	1441.740966796875	209.5898437499999	-897.4406127929689	1275.522216796875	207.9659881591795	-906.6356811523439	1235.2099609375	187.6488952636717	-913.3749389648439	1229.127563476562	237.2666168212889	-904.6159057617189	1171.489624023438	205.1803894042967	-882.2219848632814	1105.11572265625	210.6680297851561	-922.1676635742189	1071.276245117188	199.0859985351561	-920.7554321289064	1069.558715820312	249.5114440917967	-928.4526977539064	1009.361999511719	221.3139343261717	-914.0028076171876	959.1864624023438	206.0173034667967	-907.5741577148439	956.6763305664062	256.8902587890623	-926.5153198242188	898.741943359375	230.8647155761717	-844.9485473632812	678.142333984375	49.25630950927719	-900.6311645507812	629.8942260742188	78.55782318115217	-854.28955078125	619.7135009765625	64.98185729980453	-906.1519165039062	326.4035949707031	79.08987426757795	-964.0615234375	273.1601867675781	90.76625061035139	-914.564208984375	265.8782043457031	89.95916748046858	-1017.757995605469	88.25108337402338	189.5816650390623	-803.1292114257812	42.4507446289062	180.7502136230467	-853.760986328125	29.931318283081	82.05589294433578	-726.5932617187501	679.4022216796875	422.1796874999999	-651.7678222656251	653.8402709960938	428.8251342773436	-666.0203247070314	359.7750549316406	411.0929870605468	-630.8728027343751	289.3663330078124	410.7713012695311	-676.6985473632814	301.2310180664062	395.0906982421874	-698.2553100585938	87.39411163330074	285.7741699218749	-490.6621704101563	75.037239074707	319.254425048828	-549.7650756835939	53.98904800415036	411.1128540039061	-666.3338012695314	1333.208129882812	218.6494903564452	-655.0670776367189	1189.96533203125	218.2368011474608	-749.1365356445314	1399.498413085938	40.09099197387682	-736.8365478515626	1248.763305664062	-62.80955123901381	-740.4321289062501	1186.219970703125	-82.94171905517592	-698.0927124023439	1196.537841796875	-58.74794769287122	-647.0386352539064	998.3930053710938	-105.8903808593751	-658.1458740234375	922.5120849609375	-88.58699035644544	-616.0339965820314	947.5743408203125	-99.05181121826183	-552.0200805664062	864.8573608398438	-87.97687530517588	-521.744140625	892.4225463867188	-21.21435928344736	-758.7566528320315	1393.615234375	383.5869750976561	-804.334899902344	1251.907348632812	482.7988891601561	-790.5843505859377	1188.640258789062	496.3770751953123	-840.8572387695315	1199.784912109375	501.452423095703	-839.851745605469	982.1476440429688	549.2488403320311	-797.145935058594	928.3756713867188	587.9281005859374	-835.7392578125001	920.0686645507812	557.9885864257811	-809.1702880859376	836.3818969726562	582.6732788085936	-760.0389404296876	813.8985595703125	521.3158569335936	-699.2503662109376	628.9143676757812	411.6778564453124	
